<svg width="200" height="60" viewBox="0 0 200 60" fill="none" xmlns="http://www.w3.org/2000/svg">
  <path d="M40 10C40 4.477 44.477 0 50 0H60C65.523 0 70 4.477 70 10V50C70 55.523 65.523 60 60 60H50C44.477 60 40 55.523 40 50V10Z" fill="#3B82F6"/>
  <path d="M10 10C10 4.477 14.477 0 20 0H30C35.523 0 40 4.477 40 10V50C40 55.523 35.523 60 30 60H20C14.477 60 10 55.523 10 50V10Z" fill="#2563EB"/>
  <path d="M0 20C0 14.477 4.477 10 10 10H20C25.523 10 30 14.477 30 20V40C30 45.523 25.523 50 20 50H10C4.477 50 0 45.523 0 40V20Z" fill="#1D4ED8"/>
  <path d="M85 15H95C100.523 15 105 19.477 105 25V25C105 30.523 100.523 35 95 35H85V15Z" fill="#3B82F6"/>
  <path d="M85 35H95C100.523 35 105 39.477 105 45V45C105 50.523 100.523 55 95 55H85V35Z" fill="#2563EB"/>
  <path d="M115 15H125C130.523 15 135 19.477 135 25V45C135 50.523 130.523 55 125 55H115V15Z" fill="#1D4ED8"/>
  <path d="M145 15H155C160.523 15 165 19.477 165 25V45C165 50.523 160.523 55 155 55H145V15Z" fill="#3B82F6"/>
  <path d="M145 15V35H165V15H145Z" fill="#2563EB"/>
  <path d="M175 15H185C190.523 15 195 19.477 195 25V45C195 50.523 190.523 55 185 55H175V15Z" fill="#1D4ED8"/>
  <path d="M175 35V55H195V35H175Z" fill="#3B82F6"/>
  <circle cx="25" cy="30" r="5" fill="white"/>
  <circle cx="55" cy="30" r="5" fill="white"/>
</svg>
